
<svg xmlns="http://www.w3.org/2000/svg" width="560" height="240" viewBox="0 0 560 240">
    <path d="m151.363,24.535c34.261,34.838-42.065,118.74,33.549,142.049,64.387,19.848,50.065-102.368,139.927-113.695,109.927-13.856,75.035,64.581,83.68,110.545,12.157,64.636,86.686,83.689,111.933,25.314,25.219-58.312-39.419-40.603-38.543-99.518.491-32.993-26.601-61.017-64.31-61.017-139.281,0-66.329,188.211-135.904,188.237-71.351.027-2.296-134.161-96.919-134.161-66.593,0-36.324,104.43-92.322,127.132-41.714,16.911-68.195-14.6-57.769-49.188,4.351-14.435,32.224-56.076,31.875-76.524-.944-55.405,52.701-82.118,84.803-59.173"
          fill="none" stroke="white" stroke-width="1" stroke-dasharray="5"/>
</svg>