
<svg xmlns="http://www.w3.org/2000/svg" width="360" height="240" viewBox="0 0 360 240">
    <path d="m95.159,29.048c22.537,33.191-27.671,113.126,22.069,135.333,42.354,18.91,32.933-97.529,92.046-108.32,72.311-13.201,49.359,61.528,55.046,105.319,7.997,61.58,57.023,79.732,73.631,24.117,16.59-55.556-25.93-38.684-25.354-94.813.323-31.433-17.498-58.133-42.304-58.133-91.621,0-43.632,179.314-89.399,179.338-46.935.025-1.51-127.819-63.754-127.819-43.806,0-23.894,99.493-60.731,121.122-27.44,16.112-44.86-13.91-38.001-46.863,2.862-13.752,21.197-53.425,20.968-72.907-.621-52.786,34.668-78.236,55.785-56.375"
          fill="none" stroke="white" stroke-width="1" stroke-dasharray="5"/>
</svg>